<?xml version="1.0" encoding="UTF-8" standalone="no"?>
<svg
   xmlns:dc="http://purl.org/dc/elements/1.1/"
   xmlns:cc="http://creativecommons.org/ns#"
   xmlns:rdf="http://www.w3.org/1999/02/22-rdf-syntax-ns#"
   xmlns:svg="http://www.w3.org/2000/svg"
   xmlns="http://www.w3.org/2000/svg"
   xmlns:sodipodi="http://sodipodi.sourceforge.net/DTD/sodipodi-0.dtd"
   xmlns:inkscape="http://www.inkscape.org/namespaces/inkscape"
   sodipodi:docname="bar.svg"
   inkscape:version="1.0 (4035a4fb49, 2020-05-01)"
   id="svg8"
   version="1.1"
   viewBox="0 0 5.2916665 5.2916666"
   height="5.2916665mm"
   width="5.2916665mm">
  <defs
     id="defs2" />
  <sodipodi:namedview
     inkscape:window-maximized="1"
     inkscape:window-y="-8"
     inkscape:window-x="-8"
     inkscape:window-height="1017"
     inkscape:window-width="1920"
     showgrid="false"
     inkscape:document-rotation="0"
     inkscape:current-layer="layer1"
     inkscape:document-units="mm"
     inkscape:cy="9.6225595"
     inkscape:cx="8.4674558"
     inkscape:zoom="31.678384"
     inkscape:pageshadow="2"
     inkscape:pageopacity="0.0"
     borderopacity="1.0"
     bordercolor="#666666"
     pagecolor="#ffffff"
     id="base" />
  <metadata
     id="metadata5">
    <rdf:RDF>
      <cc:Work
         rdf:about="">
        <dc:format>image/svg+xml</dc:format>
        <dc:type
           rdf:resource="http://purl.org/dc/dcmitype/StillImage" />
        <dc:title></dc:title>
      </cc:Work>
    </rdf:RDF>
  </metadata>
  <g
     transform="translate(0,-1.0583333)"
     id="layer1"
     inkscape:groupmode="layer"
     inkscape:label="Layer 1">
    <path
       d="M 0.28373131,2.1166666 A 2.1168733,2.1166665 0 0 0 0,3.1749999 2.1168733,2.1166665 0 0 0 2.1168734,5.2916666 2.1168733,2.1166665 0 0 0 3.7582772,4.5118691 c 0.1434605,0.073336 0.3030992,0.1188559 0.474436,0.1188559 0.5814241,0 1.0589535,-0.4774827 1.0589535,-1.0588501 0,-0.5813676 -0.4775294,-1.0583333 -1.0589535,-1.0583333 -0.034834,0 -0.06782,0.00699 -0.1018126,0.010335 A 2.1168733,2.1166665 0 0 0 3.9505324,2.1166666 Z M 4.2327132,3.0427083 c 0.2954134,0 0.5292183,0.2337821 0.5292183,0.5291666 0,0.2953846 -0.2338049,0.5296834 -0.5292183,0.5296834 -0.069433,0 -0.1346025,-0.014118 -0.1948391,-0.037724 A 2.1168733,2.1166665 0 0 0 4.2337468,3.1749999 2.1168733,2.1166665 0 0 0 4.2296122,3.043225 c 0.00106,-6.1e-6 0.00204,-5.159e-4 0.0031,-5.159e-4 z"
       style="fill:#ffffff;fill-opacity:1;stroke:none;stroke-width:0.00937806;stroke-linecap:square;paint-order:markers stroke fill"
       id="path833" />
  </g>
</svg>
