<?xml version="1.0" encoding="UTF-8" standalone="no"?>
<svg
   xmlns:dc="http://purl.org/dc/elements/1.1/"
   xmlns:cc="http://creativecommons.org/ns#"
   xmlns:rdf="http://www.w3.org/1999/02/22-rdf-syntax-ns#"
   xmlns:svg="http://www.w3.org/2000/svg"
   xmlns="http://www.w3.org/2000/svg"
   xmlns:sodipodi="http://sodipodi.sourceforge.net/DTD/sodipodi-0.dtd"
   xmlns:inkscape="http://www.inkscape.org/namespaces/inkscape"
   sodipodi:docname="editor.svg"
   inkscape:version="1.0 (4035a4fb49, 2020-05-01)"
   id="svg8"
   version="1.1"
   viewBox="0 0 9.2900001 9.2900001"
   height="9.29mm"
   width="9.29mm">
  <defs
     id="defs2" />
  <sodipodi:namedview
     inkscape:window-maximized="1"
     inkscape:window-y="-8"
     inkscape:window-x="-8"
     inkscape:window-height="1017"
     inkscape:window-width="1920"
     showgrid="false"
     inkscape:document-rotation="0"
     inkscape:current-layer="layer1"
     inkscape:document-units="mm"
     inkscape:cy="22.575226"
     inkscape:cx="18.163463"
     inkscape:zoom="11.2"
     inkscape:pageshadow="2"
     inkscape:pageopacity="0.0"
     borderopacity="1.0"
     bordercolor="#666666"
     pagecolor="#ffffff"
     id="base" />
  <metadata
     id="metadata5">
    <rdf:RDF>
      <cc:Work
         rdf:about="">
        <dc:format>image/svg+xml</dc:format>
        <dc:type
           rdf:resource="http://purl.org/dc/dcmitype/StillImage" />
        <dc:title></dc:title>
      </cc:Work>
    </rdf:RDF>
  </metadata>
  <g
     transform="translate(9.7801342,-0.04724702)"
     id="layer1"
     inkscape:groupmode="layer"
     inkscape:label="Layer 1">
    <path
       d="M -1.4721144,0.60374702 -2.0110995,0.74844252 -2.8069167,2.381431 -2.2674146,2.236736 Z M -2.689611,0.93034503 -3.2285963,1.0745232 -4.0244133,2.707512 -3.4854282,2.5628168 Z m 1.6438271,0.00465 -0.5457031,1.12035427 0.5410523,-0.1446952 0.1720826,-0.3524363 z m -2.861324,0.32142987 -0.538985,0.1441785 -0.795817,1.6329888 0.5389851,-0.1446952 z m -1.2180133,0.3260824 -0.5389853,0.1446952 -0.7958169,1.6324721 0.5395018,-0.1441784 z m -1.2169801,0.326081 -0.5395018,0.1446952 -0.7958172,1.6329889 0.5395021,-0.1446952 z M -7.5590812,2.2346694 -8.0991,2.3793646 -8.8949169,4.0123534 -8.3538646,3.8676582 Z m -1.2159464,0.326081 -0.541569,0.1452119 -0.4635376,0.9503375 0.1483113,0.5534592 0.060978,-0.01602 z"
       style="fill:#ffffff;fill-opacity:1;stroke:none;stroke-width:0.108502;stroke-linecap:square;stroke-opacity:1;paint-order:markers stroke fill"
       id="rect870" />
    <path
       d="M -9.6319056,4.2099275 V 8.780747 h 9.14156348 V 4.2099275 Z m 1.8283126,1.1427049 h 5.484938 v 2.2854097 h -5.484938 z"
       style="fill:#ffffff;fill-opacity:1;stroke:none;stroke-width:0.198097;stroke-linecap:square;stroke-opacity:1;paint-order:markers stroke fill"
       id="rect872" />
  </g>
</svg>
