<?xml version="1.0" encoding="UTF-8" standalone="no"?>
<svg
   xmlns:dc="http://purl.org/dc/elements/1.1/"
   xmlns:cc="http://creativecommons.org/ns#"
   xmlns:rdf="http://www.w3.org/1999/02/22-rdf-syntax-ns#"
   xmlns:svg="http://www.w3.org/2000/svg"
   xmlns="http://www.w3.org/2000/svg"
   xmlns:sodipodi="http://sodipodi.sourceforge.net/DTD/sodipodi-0.dtd"
   xmlns:inkscape="http://www.inkscape.org/namespaces/inkscape"
   sodipodi:docname="noteBG.svg"
   inkscape:version="1.0 (4035a4fb49, 2020-05-01)"
   id="svg8"
   version="1.1"
   viewBox="0 0 4.2333332 4.2333332"
   height="4.2333331mm"
   width="4.2333331mm">
  <defs
     id="defs2" />
  <sodipodi:namedview
     inkscape:window-maximized="1"
     inkscape:window-y="-8"
     inkscape:window-x="-8"
     inkscape:window-height="1017"
     inkscape:window-width="1920"
     showgrid="false"
     inkscape:document-rotation="0"
     inkscape:current-layer="layer1"
     inkscape:document-units="mm"
     inkscape:cy="9.7538788"
     inkscape:cx="3.9880769"
     inkscape:zoom="31.678384"
     inkscape:pageshadow="2"
     inkscape:pageopacity="0.0"
     borderopacity="1.0"
     bordercolor="#666666"
     pagecolor="#ffffff"
     id="base" />
  <metadata
     id="metadata5">
    <rdf:RDF>
      <cc:Work
         rdf:about="">
        <dc:format>image/svg+xml</dc:format>
        <dc:type
           rdf:resource="http://purl.org/dc/dcmitype/StillImage" />
        <dc:title></dc:title>
      </cc:Work>
    </rdf:RDF>
  </metadata>
  <g
     transform="translate(-3.2072344,-33.94323)"
     id="layer1"
     inkscape:groupmode="layer"
     inkscape:label="Layer 1">
    <rect
       style="opacity:0.999;fill:#ffffff;fill-opacity:1;stroke-width:0.019049;paint-order:markers stroke fill"
       id="rect895"
       width="4.2333331"
       height="4.2333331"
       x="3.2072344"
       y="33.94323" />
    <rect
       style="opacity:0.999;fill:#ededed;fill-opacity:1;stroke-width:0.00476226;paint-order:markers stroke fill"
       id="rect835"
       width="1.0583333"
       height="1.0583333"
       x="4.2655678"
       y="35.001564" />
    <rect
       y="35.001564"
       x="6.3822346"
       height="1.0583333"
       width="1.0583333"
       id="rect843"
       style="opacity:0.999;fill:#ededed;fill-opacity:1;stroke-width:0.00476226;paint-order:markers stroke fill" />
    <rect
       y="37.118233"
       x="4.2655678"
       height="1.0583333"
       width="1.0583333"
       id="rect849"
       style="opacity:0.999;fill:#ededed;fill-opacity:1;stroke-width:0.00476226;paint-order:markers stroke fill" />
    <rect
       style="opacity:0.999;fill:#ededed;fill-opacity:1;stroke-width:0.00476226;paint-order:markers stroke fill"
       id="rect853"
       width="1.0583333"
       height="1.0583333"
       x="6.3822346"
       y="37.118233" />
    <rect
       style="opacity:0.999;fill:#d9d9d9;fill-opacity:1;stroke-width:0.00476226;paint-order:markers stroke fill"
       id="rect859"
       width="1.0583333"
       height="1.0583333"
       x="4.2655678"
       y="36.059898" />
    <rect
       y="33.94323"
       x="4.2655678"
       height="1.0583333"
       width="1.0583333"
       id="rect861"
       style="opacity:0.999;fill:#d9d9d9;fill-opacity:1;stroke-width:0.00476226;paint-order:markers stroke fill" />
    <rect
       style="opacity:0.999;fill:#d9d9d9;fill-opacity:1;stroke-width:0.00476226;paint-order:markers stroke fill"
       id="rect863"
       width="1.0583333"
       height="1.0583333"
       x="5.3239012"
       y="35.001564" />
    <rect
       y="35.001564"
       x="3.2072344"
       height="1.0583333"
       width="1.0583333"
       id="rect865"
       style="opacity:0.999;fill:#d9d9d9;fill-opacity:1;stroke-width:0.00476226;paint-order:markers stroke fill" />
    <rect
       style="opacity:0.999;fill:#d9d9d9;fill-opacity:1;stroke-width:0.00476226;paint-order:markers stroke fill"
       id="rect867"
       width="1.0583333"
       height="1.0583333"
       x="6.3822346"
       y="33.94323" />
    <rect
       y="37.118233"
       x="3.2072344"
       height="1.0583333"
       width="1.0583333"
       id="rect869"
       style="opacity:0.999;fill:#d9d9d9;fill-opacity:1;stroke-width:0.00476226;paint-order:markers stroke fill" />
    <rect
       style="opacity:0.999;fill:#d9d9d9;fill-opacity:1;stroke-width:0.00476226;paint-order:markers stroke fill"
       id="rect871"
       width="1.0583333"
       height="1.0583333"
       x="5.3239012"
       y="37.118233" />
    <rect
       y="36.059898"
       x="6.3822346"
       height="1.0583333"
       width="1.0583333"
       id="rect873"
       style="opacity:0.999;fill:#d9d9d9;fill-opacity:1;stroke-width:0.00476226;paint-order:markers stroke fill" />
    <circle
       transform="matrix(0.625,0,0,0.625,2.1949005,12.927149)"
       r="0.26458332"
       cy="34.472397"
       cx="5.8530679"
       id="path875"
       style="opacity:0.999;fill:#000000;fill-opacity:0.25;stroke-width:0.718384;paint-order:markers stroke fill;" />
    <circle
       transform="matrix(0.625,0,0,0.625,1.4011504,13.720898)"
       style="opacity:0.999;fill:#000000;fill-opacity:0.25;stroke-width:0.718384;paint-order:markers stroke fill;"
       id="circle885"
       cx="3.7364011"
       cy="36.589062"
       r="0.26458332" />
    <circle
       transform="matrix(0.625,0,0,0.625,1.7980254,13.324024)"
       r="0.26458332"
       cy="35.530731"
       cx="4.7947345"
       id="circle887"
       style="opacity:0.999;fill:#000000;fill-opacity:0.25;stroke-width:0.718384;paint-order:markers stroke fill;" />
    <circle
       transform="matrix(0.625,0,0,0.625,2.5917753,13.324024)"
       style="opacity:0.999;fill:#000000;fill-opacity:0.25;stroke-width:0.718384;paint-order:markers stroke fill;"
       id="circle889"
       cx="6.9114008"
       cy="35.530731"
       r="0.26458332" />
    <circle
       transform="matrix(0.625,0,0,0.625,1.7980254,14.117774)"
       style="opacity:0.999;fill:#000000;fill-opacity:0.25;stroke-width:0.718384;paint-order:markers stroke fill;"
       id="circle891"
       cx="4.7947345"
       cy="37.647396"
       r="0.26458332" />
    <circle
       transform="matrix(0.625,0,0,0.625,2.5917753,14.117774)"
       r="0.26458332"
       cy="37.647396"
       cx="6.9114008"
       id="circle893"
       style="opacity:0.999;fill:#000000;fill-opacity:0.25;stroke-width:0.718384;paint-order:markers stroke fill;" />
    <path
       d="m 3.705912,34.075522 -0.00258,0.09147 v 0.328145 a 0.2546522,0.19154683 0 0 0 -0.075964,-0.0088 0.2546522,0.19154683 0 0 0 -0.2547648,0.191203 0.2546522,0.19154683 0 0 0 0.2547648,0.19172 0.2546522,0.19154683 0 0 0 0.2547648,-0.19172 h 0.00207 v -0.402559 c 0.088731,-0.0056 0.157857,0.02488 0.2098063,0.08682 0.00421,-0.01101 0.00744,-0.05646 0.00568,-0.12299 -8.891e-4,-0.03362 -0.1088679,-0.07293 -0.2154907,-0.07183 -0.078794,-0.0031 -0.1449387,-0.02417 -0.1782838,-0.09147 z"
       style="opacity:0.999;fill:#000000;fill-opacity:0.25;stroke-width:0.417695;paint-order:markers stroke fill;"
       id="path897" />
    <path
       id="path917"
       style="opacity:0.999;fill:#000000;fill-opacity:0.25;stroke-width:0.417695;paint-order:markers stroke fill;"
       d="m 5.8227053,36.192065 -0.00258,0.09147 v 0.328145 a 0.2546522,0.19154683 0 0 0 -0.075964,-0.0088 0.2546522,0.19154683 0 0 0 -0.2547648,0.191203 0.2546522,0.19154683 0 0 0 0.2547648,0.19172 0.2546522,0.19154683 0 0 0 0.2547648,-0.19172 h 0.00207 v -0.402559 c 0.088731,-0.0056 0.157857,0.02488 0.2098063,0.08682 0.00421,-0.01101 0.00744,-0.05646 0.00568,-0.12299 -8.891e-4,-0.03362 -0.1088679,-0.07293 -0.2154907,-0.07183 -0.078794,-0.0031 -0.1449387,-0.02417 -0.1782838,-0.09147 z" />
  </g>
</svg>
