<?xml version="1.0" encoding="UTF-8" standalone="no"?>
<svg
   xmlns:dc="http://purl.org/dc/elements/1.1/"
   xmlns:cc="http://creativecommons.org/ns#"
   xmlns:rdf="http://www.w3.org/1999/02/22-rdf-syntax-ns#"
   xmlns:svg="http://www.w3.org/2000/svg"
   xmlns="http://www.w3.org/2000/svg"
   xmlns:sodipodi="http://sodipodi.sourceforge.net/DTD/sodipodi-0.dtd"
   xmlns:inkscape="http://www.inkscape.org/namespaces/inkscape"
   sodipodi:docname="settings.svg"
   inkscape:version="1.0 (4035a4fb49, 2020-05-01)"
   id="svg8"
   version="1.1"
   viewBox="0 0 1.3229167 1.3229167"
   height="1.3229166mm"
   width="1.3229166mm">
  <defs
     id="defs2" />
  <sodipodi:namedview
     inkscape:window-maximized="1"
     inkscape:window-y="-8"
     inkscape:window-x="-8"
     inkscape:window-height="1017"
     inkscape:window-width="1920"
     showgrid="false"
     inkscape:document-rotation="0"
     inkscape:current-layer="layer1"
     inkscape:document-units="mm"
     inkscape:cy="1.8148656"
     inkscape:cx="0.77374506"
     inkscape:zoom="128"
     inkscape:pageshadow="2"
     inkscape:pageopacity="0.0"
     borderopacity="1.0"
     bordercolor="#666666"
     pagecolor="#ffffff"
     id="base" />
  <metadata
     id="metadata5">
    <rdf:RDF>
      <cc:Work
         rdf:about="">
        <dc:format>image/svg+xml</dc:format>
        <dc:type
           rdf:resource="http://purl.org/dc/dcmitype/StillImage" />
        <dc:title></dc:title>
      </cc:Work>
    </rdf:RDF>
  </metadata>
  <g
     transform="translate(-0.6686817,0.88471223)"
     id="layer1"
     inkscape:groupmode="layer"
     inkscape:label="Layer 1">
    <path
       transform="matrix(0.26458333,0,0,0.26458333,0.80097336,-0.75242057)"
       d="M 1.5,-0.5 V 0.06445312 A 1.9999999,1.9999999 0 0 0 0.984375,0.27734375 L 0.5859375,-0.12109375 -0.12109375,0.5859375 0.27734375,0.984375 A 1.9999999,1.9999999 0 0 0 0.06445312,1.5 H -0.5 v 1 H 0.06445312 A 1.9999999,1.9999999 0 0 0 0.27734375,3.015625 L -0.12109375,3.4140625 0.5859375,4.1210938 0.984375,3.7226562 A 1.9999999,1.9999999 0 0 0 1.5,3.9355469 V 4.5 h 1 V 3.9355469 A 1.9999999,1.9999999 0 0 0 3.015625,3.7226562 L 3.4140625,4.1210938 4.1210938,3.4140625 3.7226562,3.015625 A 1.9999999,1.9999999 0 0 0 3.9355469,2.5 H 4.5 v -1 H 3.9355469 A 1.9999999,1.9999999 0 0 0 3.7226562,0.984375 L 4.1210938,0.5859375 3.4140625,-0.12109375 3.015625,0.27734375 A 1.9999999,1.9999999 0 0 0 2.5,0.06445312 V -0.5 Z M 2,1 A 0.99999995,0.99999995 0 0 1 3,2 0.99999995,0.99999995 0 0 1 2,3 0.99999995,0.99999995 0 0 1 1,2 0.99999995,0.99999995 0 0 1 2,1 Z"
       style="fill:#ffffff;fill-opacity:1;stroke:none;stroke-width:1.82874;stroke-linecap:butt;stroke-linejoin:round;stroke-miterlimit:4;stroke-dasharray:none;stroke-opacity:1;paint-order:markers stroke fill"
       id="path1515" />
  </g>
</svg>
