<?xml version="1.0" encoding="UTF-8" standalone="no"?>
<svg
   xmlns:dc="http://purl.org/dc/elements/1.1/"
   xmlns:cc="http://creativecommons.org/ns#"
   xmlns:rdf="http://www.w3.org/1999/02/22-rdf-syntax-ns#"
   xmlns:svg="http://www.w3.org/2000/svg"
   xmlns="http://www.w3.org/2000/svg"
   xmlns:sodipodi="http://sodipodi.sourceforge.net/DTD/sodipodi-0.dtd"
   xmlns:inkscape="http://www.inkscape.org/namespaces/inkscape"
   width="6.0854168mm"
   height="6.614583mm"
   viewBox="0 0 6.0854168 6.614583"
   version="1.1"
   id="svg8"
   inkscape:version="1.0 (4035a4fb49, 2020-05-01)"
   sodipodi:docname="perfect.svg"
   inkscape:export-filename="C:\Users\Connor\Documents\Godot\RhythmNet\assets\game\perfect.png"
   inkscape:export-xdpi="1920"
   inkscape:export-ydpi="1920">
  <defs
     id="defs2" />
  <sodipodi:namedview
     id="base"
     pagecolor="#ffffff"
     bordercolor="#666666"
     borderopacity="1.0"
     inkscape:pageopacity="0.0"
     inkscape:pageshadow="2"
     inkscape:zoom="11.2"
     inkscape:cx="-13.180271"
     inkscape:cy="28.291826"
     inkscape:document-units="mm"
     inkscape:current-layer="layer1"
     inkscape:document-rotation="0"
     showgrid="false"
     inkscape:window-width="1920"
     inkscape:window-height="1017"
     inkscape:window-x="-8"
     inkscape:window-y="-8"
     inkscape:window-maximized="1" />
  <metadata
     id="metadata5">
    <rdf:RDF>
      <cc:Work
         rdf:about="">
        <dc:format>image/svg+xml</dc:format>
        <dc:type
           rdf:resource="http://purl.org/dc/dcmitype/StillImage" />
        <dc:title />
      </cc:Work>
    </rdf:RDF>
  </metadata>
  <g
     inkscape:label="Layer 1"
     inkscape:groupmode="layer"
     id="layer1"
     transform="translate(-128.5875,-87.841666)">
    <path
       transform="matrix(0.26458333,0,0,0.26458333,128.5875,87.841666)"
       d="M 0 0 L 0 2 L 0 25 L 11 25 L 11 19 L 15 19 C 17.32648 19 19.43472 18.381779 20.90625 16.912109 C 22.37778 15.442439 23 13.33239 23 11 L 23 8 C 23 5.66613 22.370707 3.5577437 20.898438 2.0898438 C 19.426168 0.62195377 17.31995 0 15 0 L 9 0 L 0 0 z "
       style="fill:#000000;fill-opacity:1;stroke:none;stroke-width:4;stroke-linecap:square;stroke-miterlimit:4;stroke-dasharray:none;stroke-opacity:1;paint-order:markers stroke fill"
       id="path845" />
    <path
       id="rect849"
       style="fill:#fb00c8;fill-opacity:1;stroke:none;stroke-width:4;stroke-linecap:square;stroke-miterlimit:4;stroke-dasharray:none;stroke-opacity:1;paint-order:markers stroke fill"
       d="m 488,334 v 21 h 7 v -6 h 6 c 3.97928,0 6,-2.01057 6,-6 0,-1 0,-2 0,-3 0,-3.98612 -2.03779,-6 -6,-6 h -6 z m 7,6 h 6 v 3 h -6 z"
       transform="scale(0.26458333)"
       sodipodi:nodetypes="cccccsscccccccc" />
    <circle
       style="fill:#000000;fill-opacity:1;stroke:none;stroke-width:0.859646;stroke-linecap:square;stroke-miterlimit:4;stroke-dasharray:none;stroke-opacity:1;paint-order:markers stroke fill"
       id="path866"
       cx="131.23334"
       cy="89.164581"
       r="0.26458332" />
    <circle
       r="0.26458332"
       cy="89.164581"
       cx="132.29167"
       id="circle868"
       style="fill:#000000;fill-opacity:1;stroke:none;stroke-width:0.859646;stroke-linecap:square;stroke-miterlimit:4;stroke-dasharray:none;stroke-opacity:1;paint-order:markers stroke fill" />
  </g>
</svg>
