<?xml version="1.0" encoding="UTF-8" standalone="no"?>
<svg
   xmlns:dc="http://purl.org/dc/elements/1.1/"
   xmlns:cc="http://creativecommons.org/ns#"
   xmlns:rdf="http://www.w3.org/1999/02/22-rdf-syntax-ns#"
   xmlns:svg="http://www.w3.org/2000/svg"
   xmlns="http://www.w3.org/2000/svg"
   xmlns:sodipodi="http://sodipodi.sourceforge.net/DTD/sodipodi-0.dtd"
   xmlns:inkscape="http://www.inkscape.org/namespaces/inkscape"
   width="12.7mm"
   height="12.7mm"
   viewBox="0 0 12.7 12.7"
   version="1.1"
   id="svg8"
   inkscape:version="1.0 (4035a4fb49, 2020-05-01)"
   sodipodi:docname="playset.svg">
  <defs
     id="defs2" />
  <sodipodi:namedview
     id="base"
     pagecolor="#ffffff"
     bordercolor="#666666"
     borderopacity="1.0"
     inkscape:pageopacity="0.0"
     inkscape:pageshadow="2"
     inkscape:zoom="11.2"
     inkscape:cx="15.39469"
     inkscape:cy="24.98594"
     inkscape:document-units="mm"
     inkscape:current-layer="layer1"
     inkscape:document-rotation="0"
     showgrid="false"
     inkscape:window-width="1920"
     inkscape:window-height="1017"
     inkscape:window-x="-8"
     inkscape:window-y="-8"
     inkscape:window-maximized="1" />
  <metadata
     id="metadata5">
    <rdf:RDF>
      <cc:Work
         rdf:about="">
        <dc:format>image/svg+xml</dc:format>
        <dc:type
           rdf:resource="http://purl.org/dc/dcmitype/StillImage" />
        <dc:title />
      </cc:Work>
    </rdf:RDF>
  </metadata>
  <g
     inkscape:label="Layer 1"
     inkscape:groupmode="layer"
     id="layer1">
    <rect
       style="fill:#f4de28;stroke-width:0.0200583;stroke-linecap:square;paint-order:markers stroke fill;fill-opacity:1"
       id="rect833"
       width="12.7"
       height="12.7"
       x="0"
       y="-1.4210855e-14" />
    <path
       id="rect870"
       style="fill:#ffffff;fill-opacity:1;stroke:none;stroke-width:0.410086;stroke-linecap:square;stroke-opacity:1;paint-order:markers stroke fill"
       d="M 37.458984 10.632812 L 35.421875 11.179688 L 32.414062 17.351562 L 34.453125 16.804688 L 37.458984 10.632812 z M 32.857422 11.867188 L 30.820312 12.412109 L 27.8125 18.583984 L 29.849609 18.037109 L 32.857422 11.867188 z M 39.070312 11.884766 L 37.007812 16.119141 L 39.052734 15.572266 L 39.703125 14.240234 L 39.070312 11.884766 z M 28.255859 13.099609 L 26.21875 13.644531 L 23.210938 19.816406 L 25.248047 19.269531 L 28.255859 13.099609 z M 23.652344 14.332031 L 21.615234 14.878906 L 18.607422 21.048828 L 20.646484 20.503906 L 23.652344 14.332031 z M 19.052734 15.564453 L 17.013672 16.111328 L 14.005859 22.283203 L 16.044922 21.736328 L 19.052734 15.564453 z M 14.453125 16.796875 L 12.412109 17.34375 L 9.4042969 23.515625 L 11.449219 22.96875 L 14.453125 16.796875 z M 9.8574219 18.029297 L 7.8105469 18.578125 L 6.0585938 22.169922 L 6.6191406 24.261719 L 6.8496094 24.201172 L 9.8574219 18.029297 z "
       transform="scale(0.26458333)" />
    <path
       id="rect872"
       style="fill:#ffffff;fill-opacity:1;stroke:none;stroke-width:0.198096;stroke-linecap:square;stroke-opacity:1;paint-order:markers stroke fill"
       d="M 1.7512315,6.4194154 V 10.990197 H 10.892795 V 6.4194154 Z m 1.8283126,1.1426954 h 5.484938 v 2.2853908 h -5.484938 z" />
  </g>
</svg>
